# xmcd
#
# Track frame offsets: 
#        150
#        5141
#        10992
#        17790
#        27745
#        32557
#        40175
#        45346
#        50934
#        55472
#        58742
#        69014
#        74916
#        81724
#        92517
#        105770
#        114453
#        122871
#        129991
#        137620
#        145439
#        150149
#        159288
#        164968
#        168627
#        172573
#        183109
#        188409
#        195015
#        199636
#        205031
#
# Disc length: 2848 seconds
#
# Revision: 3
# Processed by: cddbd v1.5.1PL2 Copyright (c) Steve Scherf et al.
# Submitted via: ExactAudioCopy v0.95a3
#
DISCID=a10b1e1f
DTITLE=Ѷ - ֮ԭCD
DYEAR=1900
DGENRE=
TTITLE0=¾ I
TTITLE1=ʫ
TTITLE2=ºѩ
TTITLE3=嶼
TTITLE4=ħ
TTITLE5=
TTITLE6=
TTITLE7=¾ II
TTITLE8=ص֮
TTITLE9=ڰ֮
TTITLE10=Ůʯ
TTITLE11=Դɾ
TTITLE12=˵ʱ
TTITLE13=ĵ
TTITLE14=쾻ɳ
TTITLE15=
TTITLE16=Ӱ
TTITLE17=Ȼ
TTITLE18='
TTITLE19=֮
TTITLE20=濤
TTITLE21=۹
TTITLE22=֮Ӱ
TTITLE23=ʱ
TTITLE24=Ϯ
TTITLE25=
TTITLE26=
TTITLE27=Ůʯ II
TTITLE28=
TTITLE29=
TTITLE30=Զʱ
EXTD=
EXTT0=
EXTT1=
EXTT2=
EXTT3=
EXTT4=
EXTT5=
EXTT6=
EXTT7=
EXTT8=
EXTT9=
EXTT10=
EXTT11=
EXTT12=
EXTT13=
EXTT14=
EXTT15=
EXTT16=
EXTT17=
EXTT18=
EXTT19=
EXTT20=
EXTT21=
EXTT22=
EXTT23=
EXTT24=
EXTT25=
EXTT26=
EXTT27=
EXTT28=
EXTT29=
EXTT30=
PLAYORDER=
